<svg width="120" height="120" viewBox="0 0 120 120" fill="none" xmlns="http://www.w3.org/2000/svg">
<path d="M85.9261 2.93808C84.0448 1.05686 81.4934 0 78.8329 0H41.1672C38.5067 0 35.9552 1.05686 34.074 2.93808L2.9381 34.0739C1.05687 35.9551 0 38.5066 0 41.1671V78.8328C0 81.4933 1.05686 84.0448 2.93809 85.926L34.074 117.062C35.9552 118.943 38.5067 120 41.1672 120H78.8329C81.4934 120 84.0448 118.943 85.9261 117.062L117.062 85.926C118.943 84.0448 120 81.4933 120 78.8328V41.1671C120 38.5066 118.943 35.9552 117.062 34.0739L85.9261 2.93808ZM43.3735 83.5662L26.7558 66.9485C22.8384 63.0311 22.8384 56.6797 26.7559 52.7622L43.3735 36.1446C52.3373 27.1807 67.0844 27.1807 76.0482 36.1446L92.6659 52.7622C96.5833 56.6797 96.5833 63.0311 92.6659 66.9485L76.0482 83.5662C67.0844 92.5301 52.6265 92.5301 43.3735 83.5662Z" fill="white"/>
</svg>
