<svg width="135" height="120" viewBox="0 0 135 120" fill="none" xmlns="http://www.w3.org/2000/svg">
<path d="M132.389 45.4214H132.342L105.419 56.9178L68.5821 72.6473C68.4381 72.7078 68.2837 72.7394 68.1275 72.7402C67.9714 72.741 67.8166 72.7111 67.672 72.652L29.6674 56.8849L2.08267 45.4401L2.04054 45.4214H1.99358C1.55833 45.4219 1.14105 45.595 0.833291 45.9028C0.525527 46.2105 0.352414 46.6278 0.351929 47.0631V118.358C0.352414 118.794 0.525527 119.211 0.833291 119.519C1.14105 119.826 1.55833 120 1.99358 120H132.389C132.824 120 133.242 119.826 133.549 119.519C133.857 119.211 134.03 118.794 134.031 118.358V47.0631C134.03 46.6278 133.857 46.2105 133.549 45.9028C133.242 45.595 132.824 45.4219 132.389 45.4214Z" fill="white"/>
<path d="M132.506 45.8905C132.458 45.8905 132.411 45.8758 132.372 45.8484L67.5124 0.678254C67.315 0.54143 67.0804 0.468308 66.8403 0.468717C66.6001 0.469127 66.3658 0.543046 66.1689 0.680543L1.77637 45.848C1.72543 45.8836 1.66244 45.8975 1.60122 45.8868C1.54 45.876 1.48557 45.8413 1.44988 45.7904C1.41419 45.7396 1.40015 45.6766 1.41085 45.6153C1.42156 45.5541 1.45613 45.4996 1.50697 45.4639L65.8996 0.296479C66.1753 0.104017 66.5033 0.000554785 66.8395 2.22489e-06C67.1758 -0.000550335 67.5041 0.101833 67.7804 0.293387L132.64 45.4634C132.681 45.492 132.712 45.5329 132.728 45.5801C132.744 45.6274 132.745 45.6786 132.73 45.7262C132.715 45.7738 132.685 45.8155 132.645 45.845C132.605 45.8745 132.556 45.8905 132.506 45.8905Z" fill="#94A3B8"/>
<path d="M5.45581 47.4918L66.9038 1.95117L128.818 50.7322L70.0698 85.5589L38.1746 78.2888L5.45581 47.4918Z" fill="#E6E6E6"/>
<path d="M40.8672 107.07H10.5103C10.3239 107.07 10.1392 107.034 9.9668 106.963C9.7944 106.892 9.63767 106.788 9.50558 106.657C9.37348 106.525 9.2686 106.369 9.19696 106.197C9.12531 106.025 9.08829 105.84 9.08801 105.654C9.08774 105.467 9.12422 105.283 9.19536 105.11C9.2665 104.938 9.37091 104.782 9.50262 104.65C9.63432 104.518 9.79075 104.413 9.96293 104.342C10.1351 104.27 10.3197 104.233 10.5061 104.233H40.8672C41.0536 104.233 41.2383 104.269 41.4107 104.34C41.5831 104.411 41.7398 104.515 41.8719 104.647C42.004 104.778 42.1089 104.934 42.1805 105.107C42.2522 105.279 42.2892 105.463 42.2895 105.65C42.2897 105.836 42.2533 106.021 42.1821 106.193C42.111 106.365 42.0066 106.522 41.8749 106.654C41.7431 106.786 41.5867 106.89 41.4145 106.962C41.2423 107.033 41.0578 107.07 40.8714 107.07H40.8672Z" fill="#968DB1"/>
<path d="M21.4015 100.972H10.5102C10.3238 100.973 10.1391 100.937 9.96668 100.866C9.79428 100.795 9.63755 100.691 9.50546 100.559C9.37336 100.427 9.26849 100.271 9.19684 100.099C9.12519 99.927 9.08817 99.7425 9.08789 99.5561C9.08762 99.3697 9.12409 99.185 9.19524 99.0127C9.26638 98.8404 9.37079 98.6839 9.50249 98.5519C9.6342 98.42 9.79063 98.3154 9.96282 98.2439C10.135 98.1725 10.3196 98.1358 10.506 98.1357H21.4015C21.7774 98.1357 22.1378 98.2848 22.4038 98.5503C22.6697 98.8159 22.8194 99.1761 22.82 99.5519C22.8205 99.9277 22.6719 100.288 22.4068 100.555C22.1416 100.821 21.7816 100.971 21.4058 100.972H21.4015Z" fill="#968DB1"/>
<path d="M67.7681 72.8572C67.5373 72.8575 67.3088 72.8127 67.0952 72.7254L29.1982 57.0009V7.78034C29.1988 7.3451 29.3719 6.92784 29.6796 6.62007C29.9874 6.31231 30.4047 6.13919 30.8399 6.13867H103.542C103.978 6.13918 104.395 6.31231 104.703 6.62007C105.01 6.92784 105.184 7.3451 105.184 7.78034V57.0352L105.113 57.0657L68.4613 72.7178C68.2418 72.81 68.0061 72.8574 67.7681 72.8572Z" fill="#968DB1"/>
<path d="M132.037 45.4214H131.99L105.067 56.9177L68.2301 72.6473C68.0862 72.7078 67.9317 72.7394 67.7756 72.7402C67.6194 72.741 67.4646 72.711 67.3201 72.652L29.3155 56.8849L1.73077 45.4401L1.68863 45.4214H1.64165C1.2064 45.4219 0.789126 45.595 0.481362 45.9028C0.173598 46.2105 0.000484051 46.6278 0 47.0631V118.358C0.000484053 118.794 0.173598 119.211 0.481362 119.519C0.789126 119.826 1.2064 120 1.64165 120H132.037C132.472 120 132.89 119.826 133.197 119.519C133.505 119.211 133.678 118.794 133.679 118.358V47.0631C133.678 46.6278 133.505 46.2105 133.197 45.9028C132.89 45.595 132.472 45.4219 132.037 45.4214ZM133.21 118.358C133.21 118.669 133.086 118.968 132.866 119.187C132.646 119.407 132.348 119.531 132.037 119.531H1.64165C1.33069 119.531 1.0325 119.407 0.812614 119.187C0.592731 118.968 0.469144 118.669 0.469021 118.358V47.0631C0.469446 46.7598 0.58707 46.4685 0.797303 46.2499C1.00754 46.0314 1.2941 45.9026 1.5971 45.8904L29.3155 57.3915L67.1396 73.0859C67.5491 73.2524 68.0078 73.2499 68.4154 73.0788L105.067 57.4267L132.084 45.8904C132.386 45.9035 132.672 46.0327 132.882 46.2511C133.092 46.4695 133.209 46.7603 133.21 47.0631L133.21 118.358Z" fill="#94A3B8"/>
<path d="M61.8682 24.5375H36.0706C35.5735 24.5367 35.0972 24.3386 34.746 23.9869C34.3949 23.6351 34.1976 23.1584 34.1976 22.6613C34.1976 22.1643 34.3949 21.6876 34.746 21.3358C35.0972 20.9841 35.5735 20.786 36.0706 20.7852H61.8682C62.3652 20.786 62.8416 20.9841 63.1928 21.3358C63.5439 21.6876 63.7411 22.1643 63.7411 22.6613C63.7411 23.1584 63.5439 23.6351 63.1928 23.9869C62.8416 24.3386 62.3652 24.5367 61.8682 24.5375Z" fill="white"/>
<path d="M48.5003 16.5634H36.0705C35.5729 16.5634 35.0957 16.3658 34.7439 16.0139C34.392 15.662 34.1943 15.1848 34.1943 14.6872C34.1943 14.1896 34.392 13.7124 34.7439 13.3606C35.0957 13.0087 35.5729 12.811 36.0705 12.811H48.5003C48.9979 12.811 49.4751 13.0087 49.827 13.3606C50.1788 13.7124 50.3765 14.1896 50.3765 14.6872C50.3765 15.1848 50.1788 15.662 49.827 16.0139C49.4751 16.3658 48.9979 16.5634 48.5003 16.5634Z" fill="white"/>
<path d="M86.4859 43.2993H47.0858C46.5882 43.2993 46.111 43.1016 45.7591 42.7497C45.4073 42.3979 45.2096 41.9207 45.2096 41.4231C45.2096 40.9255 45.4073 40.4482 45.7591 40.0964C46.111 39.7445 46.5882 39.5469 47.0858 39.5469H86.4859C86.9835 39.5469 87.4607 39.7445 87.8125 40.0964C88.1644 40.4482 88.362 40.9255 88.362 41.4231C88.362 41.9207 88.1644 42.3979 87.8125 42.7497C87.4607 43.1016 86.9835 43.2993 86.4859 43.2993Z" fill="white"/>
<path d="M86.4858 51.9765H47.0858C46.8391 51.9769 46.5948 51.9287 46.3668 51.8346C46.1388 51.7405 45.9316 51.6024 45.757 51.4282C45.5824 51.2539 45.4439 51.0469 45.3494 50.8191C45.2549 50.5912 45.2063 50.347 45.2063 50.1003C45.2063 49.8537 45.2549 49.6094 45.3494 49.3816C45.4439 49.1537 45.5824 48.9468 45.757 48.7725C45.9316 48.5982 46.1388 48.4601 46.3668 48.366C46.5948 48.2719 46.8391 48.2237 47.0858 48.2241H86.4858C86.7325 48.2237 86.9768 48.2719 87.2048 48.366C87.4328 48.4601 87.6401 48.5982 87.8146 48.7725C87.9892 48.9468 88.1277 49.1537 88.2222 49.3816C88.3167 49.6094 88.3653 49.8537 88.3653 50.1003C88.3653 50.347 88.3167 50.5912 88.2222 50.8191C88.1277 51.0469 87.9892 51.2539 87.8146 51.4282C87.6401 51.6024 87.4328 51.7405 87.2048 51.8346C86.9768 51.9287 86.7325 51.9769 86.4858 51.9765Z" fill="white"/>
</svg>
